<svg width="9" height="15" viewBox="0 0 9 15" fill="none" xmlns="http://www.w3.org/2000/svg">
<path d="M5.72675 14.472H3.36291C2.96807 14.472 2.64689 14.1604 2.64689 13.7774V8.60563H1.26778C0.872942 8.60563 0.551758 8.29398 0.551758 7.91109V5.69496C0.551758 5.31197 0.872942 5.00042 1.26778 5.00042H2.64689V3.89066C2.64689 2.79029 3.0031 1.85411 3.67689 1.1835C4.35372 0.509819 5.29959 0.153809 6.41225 0.153809L8.21503 0.156649C8.60919 0.157304 8.92981 0.468854 8.92981 0.851191V2.90882C8.92981 3.29181 8.60874 3.60336 8.21401 3.60336L7.00022 3.6038C6.63005 3.6038 6.53579 3.67579 6.51563 3.69785C6.48241 3.73445 6.44288 3.8379 6.44288 4.12356V5.00031H8.12279C8.24926 5.00031 8.37179 5.03057 8.47709 5.08759C8.70424 5.2107 8.84546 5.44349 8.84546 5.69507L8.84456 7.9112C8.84456 8.29398 8.52337 8.60553 8.12854 8.60553H6.44288V13.7774C6.44288 14.1604 6.12158 14.472 5.72675 14.472V14.472ZM3.51224 13.6326H5.57742V8.22985C5.57742 7.97412 5.79195 7.76613 6.05548 7.76613H7.97921L7.97999 5.83981H6.05536C5.79184 5.83981 5.57742 5.63182 5.57742 5.37609V4.12356C5.57742 3.79562 5.61177 3.42268 5.86696 3.14237C6.1753 2.80351 6.66125 2.7644 7 2.7644L8.06446 2.76397V0.995823L6.41157 0.993202C4.62344 0.993202 3.51224 2.10351 3.51224 3.89066V5.37609C3.51224 5.63171 3.29782 5.83981 3.03429 5.83981H1.41711V7.76613H3.03429C3.29782 7.76613 3.51224 7.97412 3.51224 8.22985V13.6326ZM8.21334 0.996042H8.21345H8.21334Z" fill="#828282"/>
</svg>
