<svg width="16" height="16" viewBox="0 0 16 16" fill="none" xmlns="http://www.w3.org/2000/svg">
<g clip-path="url(#clip0)">
<path d="M10.5354 7.32599L7.28075 5.51279C7.09361 5.40853 6.87241 5.41242 6.68898 5.52309C6.50544 5.63387 6.39597 5.82956 6.39597 6.04677V9.64205C6.39597 9.85822 6.50477 10.0536 6.68707 10.1645C6.78227 10.2224 6.88781 10.2514 6.99358 10.2514C7.09046 10.2514 7.18757 10.2271 7.27693 10.1781L10.5317 8.39613C10.7249 8.29027 10.8455 8.08576 10.8464 7.86226C10.8472 7.63876 10.7281 7.43334 10.5354 7.32599V7.32599ZM7.25928 9.18978V6.5027L9.69177 7.85791L7.25928 9.18978Z" fill="#828282"/>
<path d="M15.5255 4.99787L15.5248 4.991C15.5123 4.87027 15.3881 3.79636 14.8754 3.25013C14.2827 2.60766 13.6108 2.52961 13.2877 2.49219C13.2609 2.4891 13.2364 2.48624 13.2145 2.48326L13.1888 2.48051C11.2412 2.33632 8.29984 2.31664 8.27039 2.31652L8.26781 2.31641L8.26522 2.31652C8.23577 2.31664 5.29446 2.33632 3.32931 2.48051L3.30335 2.48326C3.28244 2.48612 3.2594 2.48875 3.23434 2.49173C2.9149 2.52927 2.25019 2.60743 1.65583 3.27313C1.16747 3.81352 1.0263 4.86443 1.0118 4.98254L1.01011 4.99787C1.00573 5.04811 0.901764 6.24413 0.901764 7.44485V8.56728C0.901764 9.768 1.00573 10.964 1.01011 11.0144L1.0109 11.0219C1.02338 11.1407 1.14746 12.1949 1.65786 12.7414C2.21512 13.3624 2.91974 13.4445 3.29874 13.4887C3.35865 13.4957 3.41024 13.5016 3.44542 13.5079L3.47947 13.5127C4.604 13.6217 8.12978 13.6754 8.27927 13.6775L8.28377 13.6776L8.28826 13.6775C8.31771 13.6774 11.2589 13.6577 13.2065 13.5135L13.2323 13.5108C13.2569 13.5075 13.2845 13.5045 13.3149 13.5013C13.6325 13.467 14.2936 13.3957 14.8798 12.739C15.3681 12.1985 15.5094 11.1476 15.5238 11.0296L15.5255 11.0143C15.5299 10.9639 15.634 9.768 15.634 8.56728V7.44485C15.6338 6.24413 15.5299 5.04823 15.5255 4.99787V4.99787ZM14.7705 8.56728C14.7705 9.67862 14.6752 10.8231 14.6662 10.9282C14.6296 11.2176 14.4807 11.8825 14.2427 12.1459C13.8758 12.5568 13.499 12.5975 13.2238 12.6272C13.1906 12.6307 13.1598 12.6342 13.1319 12.6377C11.2481 12.7764 8.41786 12.7977 8.28748 12.7985C8.14125 12.7963 4.66706 12.7422 3.57681 12.6391C3.52095 12.6298 3.46059 12.6227 3.39697 12.6154C3.07428 12.5778 2.63256 12.5263 2.2929 12.1459L2.28492 12.1372C2.05113 11.8892 1.90648 11.2674 1.86973 10.9316C1.86287 10.8522 1.76508 9.69418 1.76508 8.56728V7.44485C1.76508 6.33477 1.86017 5.19151 1.86939 5.08427C1.91311 4.74335 2.06485 4.11874 2.2929 3.86628C2.671 3.44285 3.06967 3.39593 3.33336 3.36491C3.35853 3.36194 3.38203 3.35919 3.40372 3.35633C5.31491 3.21694 8.16552 3.19623 8.26781 3.19543C8.37009 3.19611 11.2197 3.21694 13.1139 3.35633C13.1372 3.35931 13.1626 3.36228 13.1899 3.36549C13.4611 3.39696 13.871 3.44456 14.2472 3.85312L14.2507 3.8569C14.4845 4.10489 14.6291 4.73752 14.6659 5.08004C14.6724 5.155 14.7705 6.31554 14.7705 7.44485V8.56728Z" fill="#828282"/>
</g>
<defs>
<clipPath id="clip0">
<rect width="14.7321" height="15" fill="white" transform="translate(0.901764 0.5)"/>
</clipPath>
</defs>
</svg>
