<svg width="17" height="14" viewBox="0 0 17 14" fill="none" xmlns="http://www.w3.org/2000/svg">
<path d="M6.16877 13.8181C3.48644 13.8181 1.36642 13.3365 0.35215 12.497L0.332409 12.4806L0.314507 12.4622C0.0735682 12.2145 -0.00539594 11.8895 0.0980912 11.5707L0.107533 11.5442C0.23309 11.2215 0.540732 11.0043 0.874122 11.0022C1.56028 10.99 2.1606 10.906 2.70538 10.7428C1.83641 10.3274 1.23277 9.60829 0.873632 8.56743C0.752856 8.24282 0.857079 7.88293 1.13542 7.66833C1.20408 7.61527 1.2817 7.5752 1.36385 7.54836C0.880989 6.97551 0.524301 6.32364 0.324561 5.63423L0.318308 5.61281L0.314017 5.59088C0.24621 5.2422 0.397885 4.8837 0.675854 4.72933C0.792461 4.66053 0.919122 4.62487 1.04627 4.62184C0.90919 4.3184 0.809504 4.0069 0.750404 3.69351C0.586345 2.82503 0.721712 1.9544 1.15258 1.10583L1.25227 0.900936C1.33209 0.736994 1.48462 0.621818 1.66045 0.592457C1.83628 0.563222 2.01653 0.622952 2.14245 0.752367L2.32405 0.939244C3.75864 2.48492 5.04365 3.21831 7.26531 3.72009C7.36451 2.84368 7.73321 2.029 8.32802 1.38785C9.03588 0.624969 9.98112 0.196903 10.9896 0.182286H10.9962C11.7321 0.182286 12.6448 0.614005 13.1968 0.918452C13.6704 0.759172 14.2409 0.512565 14.8329 0.251845C15.1099 0.118271 15.4513 0.179387 15.6691 0.403186C15.8826 0.622574 15.9418 0.931936 15.8285 1.2326C15.7855 1.35572 15.7367 1.47656 15.6824 1.59476C15.7634 1.63294 15.8376 1.68474 15.9002 1.74913C16.0897 1.94382 16.1686 2.24852 16.1013 2.52549L16.0941 2.55183C15.8673 3.30312 15.4315 3.91504 14.8552 4.29912C14.7589 9.56658 10.8993 13.8181 6.16877 13.8181V13.8181ZM1.25595 11.9575C2.21173 12.5133 4.03318 12.8495 6.16877 12.8495C8.22196 12.8495 10.1595 11.9436 11.6244 10.2986C13.1013 8.64014 13.9146 6.43781 13.9146 4.09725V4.07091C13.9146 3.85896 14.0282 3.66553 14.2108 3.56598C14.5815 3.36423 14.8817 3.0206 15.0769 2.58119C14.8755 2.61383 14.6709 2.53079 14.5455 2.35764C14.3997 2.1564 14.3981 1.88459 14.5414 1.68159C14.6188 1.57195 14.6889 1.45791 14.7515 1.33996C14.2403 1.56061 13.7548 1.75845 13.3334 1.88988C13.1803 1.93752 13.0096 1.91887 12.8697 1.8386C12.1194 1.40902 11.4206 1.15221 10.9993 1.15095C9.44468 1.17539 8.18064 2.54376 8.18064 4.20285C8.18064 4.37435 8.10658 4.53514 7.97771 4.64415C7.84872 4.75302 7.68098 4.79662 7.51717 4.76335C4.95549 4.24469 3.43751 3.46693 1.85897 1.83671C1.63274 2.39381 1.57094 2.95494 1.67553 3.50902C1.7816 4.07028 2.06373 4.63268 2.49154 5.13534C2.65413 5.32613 2.67571 5.59907 2.54524 5.81443C2.41527 6.02903 2.1682 6.12933 1.9307 6.06393C1.74506 6.01277 1.57438 5.94561 1.41253 5.85929C1.74224 6.59533 2.30933 7.27605 3.02222 7.77808C3.22882 7.92363 3.31514 8.19493 3.23226 8.43789C3.14925 8.68122 2.91738 8.83785 2.66676 8.8187C2.39369 8.7979 2.15177 8.7446 1.9291 8.65475C2.32883 9.49135 2.96753 9.95168 3.95152 10.1276C4.18583 10.1696 4.36829 10.3597 4.40556 10.6008C4.44296 10.8418 4.32684 11.0808 4.1168 11.1953C3.27812 11.6522 2.36144 11.8974 1.25595 11.9575V11.9575Z" fill="#828282"/>
</svg>
